<svg width="100" height="101" viewBox="0 0 100 101" fill="white" xmlns="http://www.w3.org/2000/svg">
<path d="M44.0689 47.105L32.6987 61.5218C31.7615 62.7102 32.9709 64.3821 34.3929 63.8639L51.6442 57.5775C52.5811 57.2361 52.9316 56.0933 52.3471 55.2853L46.466 47.1548C45.8815 46.3468 44.6864 46.322 44.0689 47.105Z" fill="white" stroke="white" stroke-width="1.00165"/>
<mask id="path-2-outside-1_3147_40483" maskUnits="userSpaceOnUse" x="41.6447" y="33.4568" width="28.0131" height="26.444" fill="black">
<rect fill="white" x="41.6447" y="33.4568" width="28.0131" height="26.444"/>
<path fill-rule="evenodd" clip-rule="evenodd" d="M63.3349 42.3341C63.9597 41.5419 63.1535 40.4273 62.2055 40.7728L44.9542 47.0591C44.7234 47.1432 44.546 47.3003 44.4337 47.492C44.0789 48.0976 44.9025 48.5393 45.6034 48.5009V48.5009C47.0593 48.421 48.1101 49.8737 47.5785 51.2315L47.4306 51.6093C47.1648 52.2882 47.6902 53.0146 48.4182 52.9746L48.8234 52.9524C50.2794 52.8725 51.3302 54.3252 50.7986 55.683V55.683C50.5428 56.3365 50.7044 57.2571 51.3905 57.1099C51.6079 57.0633 51.8126 56.9439 51.9648 56.751L63.3349 42.3341Z"/>
</mask>
<path fill-rule="evenodd" clip-rule="evenodd" d="M63.3349 42.3341C63.9597 41.5419 63.1535 40.4273 62.2055 40.7728L44.9542 47.0591C44.7234 47.1432 44.546 47.3003 44.4337 47.492C44.0789 48.0976 44.9025 48.5393 45.6034 48.5009V48.5009C47.0593 48.421 48.1101 49.8737 47.5785 51.2315L47.4306 51.6093C47.1648 52.2882 47.6902 53.0146 48.4182 52.9746L48.8234 52.9524C50.2794 52.8725 51.3302 54.3252 50.7986 55.683V55.683C50.5428 56.3365 50.7044 57.2571 51.3905 57.1099C51.6079 57.0633 51.8126 56.9439 51.9648 56.751L63.3349 42.3341Z" fill="white"/>
<path d="M62.2055 40.7728L61.8625 39.8316L61.8625 39.8316L62.2055 40.7728ZM63.3349 42.3341L64.1214 42.9544L64.1214 42.9544L63.3349 42.3341ZM44.9542 47.0591L45.2971 48.0003L45.2971 48.0003L44.9542 47.0591ZM47.5785 51.2315L46.6458 50.8663L46.6458 50.8663L47.5785 51.2315ZM47.4306 51.6093L48.3633 51.9745L48.3633 51.9745L47.4306 51.6093ZM48.4182 52.9746L48.4731 53.9748L48.4731 53.9748L48.4182 52.9746ZM48.8234 52.9524L48.7686 51.9523L48.7686 51.9523L48.8234 52.9524ZM51.9648 56.751L51.1783 56.1307L51.1783 56.1307L51.9648 56.751ZM50.7986 55.683L49.8659 55.3179L50.7986 55.683ZM44.4337 47.492L45.298 47.9983L44.4337 47.492ZM45.6034 48.5009L45.6582 49.501L45.6582 49.501L45.6034 48.5009ZM62.5484 41.7139L62.5484 41.7139L64.1214 42.9544C65.371 41.3699 63.7586 39.1407 61.8625 39.8316L62.5484 41.7139ZM45.2971 48.0003L62.5484 41.7139L61.8625 39.8316L44.6113 46.118L45.2971 48.0003ZM45.298 47.9983C45.2981 47.998 45.2976 47.9989 45.2961 48.0002C45.2954 48.0008 45.2948 48.0012 45.2945 48.0013C45.2943 48.0015 45.295 48.001 45.2971 48.0003L44.6113 46.118C44.1528 46.2851 43.7949 46.6008 43.5694 46.9857L45.298 47.9983ZM48.5112 51.5967C49.3086 49.56 47.7324 47.3809 45.5485 47.5008L45.6582 49.501C46.3862 49.4611 46.9116 50.1874 46.6458 50.8663L48.5112 51.5967ZM48.3633 51.9745L48.5112 51.5967L46.6458 50.8663L46.4979 51.2442L48.3633 51.9745ZM48.3633 51.9745L48.3633 51.9745L46.4979 51.2442C45.9663 52.602 47.0171 54.0547 48.4731 53.9748L48.3633 51.9745ZM48.7686 51.9523L48.3633 51.9745L48.4731 53.9748L48.8783 53.9525L48.7686 51.9523ZM51.7313 56.0482C52.5287 54.0115 50.9525 51.8324 48.7686 51.9523L48.8783 53.9525C49.6063 53.9126 50.1317 54.639 49.8659 55.3179L51.7313 56.0482ZM51.1783 56.1307C51.1769 56.1325 51.1762 56.133 51.1764 56.1328C51.1766 56.1327 51.1772 56.1322 51.178 56.1317C51.1797 56.1307 51.1807 56.1305 51.1804 56.1305L51.6006 58.0893C52.0369 57.9957 52.449 57.7546 52.7512 57.3713L51.1783 56.1307ZM62.5484 41.7139L51.1783 56.1307L52.7512 57.3713L64.1214 42.9544L62.5484 41.7139ZM49.8659 55.3179C49.6679 55.8235 49.6121 56.4559 49.7876 57.0028C49.8781 57.2848 50.0568 57.6211 50.3958 57.8599C50.7612 58.1172 51.1931 58.1767 51.6006 58.0893L51.1804 56.1305C51.2039 56.1255 51.2582 56.1182 51.3328 56.1315C51.4096 56.1451 51.4848 56.1766 51.5494 56.222C51.6115 56.2658 51.6495 56.3123 51.67 56.3433C51.6802 56.3588 51.6865 56.371 51.6901 56.3788C51.692 56.3827 51.6932 56.3857 51.6939 56.3876C51.6947 56.3895 51.695 56.3906 51.695 56.3906C51.695 56.3906 51.6948 56.3898 51.6943 56.3881C51.6939 56.3864 51.6933 56.3839 51.6926 56.3805C51.6912 56.3738 51.6896 56.3644 51.6883 56.3524C51.6857 56.3279 51.6846 56.2965 51.6867 56.2598C51.6911 56.1835 51.708 56.1079 51.7313 56.0482L49.8659 55.3179ZM43.5694 46.9857C43.3588 47.3453 43.2799 47.774 43.4098 48.2017C43.5304 48.5985 43.7938 48.8736 44.0333 49.0478C44.4977 49.3859 45.1159 49.5308 45.6582 49.501L45.5485 47.5008C45.4845 47.5043 45.4073 47.4966 45.3336 47.4769C45.2981 47.4674 45.2686 47.4566 45.2462 47.4464C45.2352 47.4414 45.2268 47.4369 45.2209 47.4335C45.2179 47.4318 45.2157 47.4305 45.2142 47.4295C45.2127 47.4286 45.2121 47.4281 45.2121 47.4281C45.2121 47.4281 45.213 47.4288 45.2146 47.4301C45.2162 47.4314 45.2187 47.4335 45.2218 47.4365C45.2281 47.4423 45.2377 47.4522 45.2492 47.4667C45.2723 47.496 45.3045 47.5466 45.3266 47.6193C45.3496 47.6949 45.3559 47.7762 45.3448 47.8534C45.334 47.9283 45.3101 47.9776 45.298 47.9983L43.5694 46.9857Z" fill="white" mask="url(#path-2-outside-1_3147_40483)"/>
<mask id="path-4-inside-2_3147_40483" fill="white">
<path fill-rule="evenodd" clip-rule="evenodd" d="M67.5256 38.9132C67.9742 38.3812 67.4117 37.6036 66.7661 37.8632L65.4458 38.3939L65.4455 38.3935L58.7428 40.9715L62.0625 45.5608L66.6089 40.0018L66.6083 40.0011L67.5256 38.9132Z"/>
</mask>
<path fill-rule="evenodd" clip-rule="evenodd" d="M67.5256 38.9132C67.9742 38.3812 67.4117 37.6036 66.7661 37.8632L65.4458 38.3939L65.4455 38.3935L58.7428 40.9715L62.0625 45.5608L66.6089 40.0018L66.6083 40.0011L67.5256 38.9132Z" fill="white"/>
<path d="M66.7661 37.8632L66.3931 36.9353L66.3931 36.9353L66.7661 37.8632ZM67.5256 38.9132L68.2901 39.5578L68.2901 39.5578L67.5256 38.9132ZM65.4458 38.3939L64.6355 38.98L65.0936 39.6132L65.8187 39.3217L65.4458 38.3939ZM65.4455 38.3935L66.2557 37.8074L65.8047 37.1839L65.0865 37.4601L65.4455 38.3935ZM58.7428 40.9715L58.3838 40.0381L57.1709 40.5047L57.9325 41.5576L58.7428 40.9715ZM62.0625 45.5608L61.2522 46.1469L62.0138 47.1998L62.8365 46.1939L62.0625 45.5608ZM66.6089 40.0018L67.383 40.6349L67.8701 40.0393L67.4191 39.4158L66.6089 40.0018ZM66.6083 40.0011L65.8438 39.3564L65.34 39.9539L65.7981 40.5872L66.6083 40.0011ZM67.1391 38.791C67.0827 38.8137 66.9966 38.8219 66.909 38.7932C66.831 38.7677 66.7782 38.722 66.746 38.6775C66.7137 38.6329 66.6869 38.5684 66.687 38.4864C66.6872 38.3942 66.722 38.315 66.7612 38.2686L68.2901 39.5578C69.4105 38.2292 68.0056 36.2871 66.3931 36.9353L67.1391 38.791ZM65.8187 39.3217L67.1391 38.791L66.3931 36.9353L65.0728 37.466L65.8187 39.3217ZM66.256 37.8078L66.2557 37.8074L64.6352 38.9796L64.6355 38.98L66.256 37.8078ZM65.0865 37.4601L58.3838 40.0381L59.1018 41.9048L65.8044 39.3268L65.0865 37.4601ZM57.9325 41.5576L61.2522 46.1469L62.8727 44.9747L59.553 40.3854L57.9325 41.5576ZM62.8365 46.1939L67.383 40.6349L65.8348 39.3688L61.2884 44.9277L62.8365 46.1939ZM67.4191 39.4158L67.4186 39.415L65.7981 40.5872L65.7986 40.5879L67.4191 39.4158ZM66.7612 38.2686L65.8438 39.3564L67.3728 40.6457L68.2901 39.5578L66.7612 38.2686Z" fill="white" mask="url(#path-4-inside-2_3147_40483)"/>
<path d="M75.7849 88.8387C77.0567 90.7242 76.5664 93.3 74.5828 94.4126C67.889 98.1672 60.4043 100.342 52.7033 100.746C43.628 101.222 34.5943 99.2188 26.5702 94.9524C18.5462 90.686 11.8343 84.3167 7.15364 76.527C2.47302 68.7373 0.000141943 59.8208 6.10841e-09 50.733C-0.00014193 41.6453 2.47245 32.7287 7.15283 24.9389C11.8332 17.149 18.545 10.7795 26.5689 6.51283C34.5928 2.24615 43.6264 0.243145 52.7017 0.718448C60.4028 1.12177 67.8875 3.29675 74.5815 7.05116C76.5651 8.1637 77.0554 10.7395 75.7837 12.625V12.625C74.512 14.5106 71.9607 14.9883 69.9593 13.908C64.5188 10.9713 58.479 9.26829 52.271 8.94315C44.6881 8.54601 37.14 10.2196 30.4356 13.7847C23.7312 17.3497 18.1232 22.6718 14.2125 29.1806C10.3018 35.6894 8.23586 43.1396 8.23598 50.7329C8.2361 58.3262 10.3023 65.7764 14.2132 72.2851C18.1241 78.7938 23.7323 84.1157 30.4368 87.6805C37.1413 91.2453 44.6894 92.9187 52.2723 92.5213C58.4803 92.196 64.5201 90.4928 69.9605 87.5559C71.9618 86.4756 74.5132 86.9532 75.7849 88.8387V88.8387Z" fill="white"/>
</svg>
