<svg width="301" height="302" viewBox="0 0 301 302" fill="none" xmlns="http://www.w3.org/2000/svg">
<path d="M98.8092 183.26C95.9975 186.825 99.6255 191.841 103.892 190.286L155.645 171.427C158.456 170.403 159.508 166.975 157.754 164.55L140.111 140.159C138.357 137.735 134.772 137.66 132.92 140.01L98.8092 183.26Z" fill="white" stroke="black" stroke-width="3.00494"/>
<mask id="path-2-outside-1_4011_68920" maskUnits="userSpaceOnUse" x="127.625" y="101.858" width="79.2642" height="74.3327" fill="black">
<rect fill="white" x="127.625" y="101.858" width="79.2642" height="74.3327"/>
<path fill-rule="evenodd" clip-rule="evenodd" d="M190.714 125.697C192.588 123.321 190.169 119.977 187.325 121.013L135.572 139.872C134.879 140.125 134.346 140.596 134.009 141.172C132.946 142.989 135.418 144.313 137.52 144.198C141.888 143.958 145.04 148.316 143.445 152.39L143.001 153.524C142.204 155.56 143.78 157.739 145.964 157.62L147.18 157.553C151.548 157.313 154.701 161.671 153.106 165.745C152.338 167.706 152.825 170.468 154.884 170.024C155.535 169.883 156.148 169.525 156.603 168.948L190.714 125.697Z"/>
</mask>
<path fill-rule="evenodd" clip-rule="evenodd" d="M190.714 125.697C192.588 123.321 190.169 119.977 187.325 121.013L135.572 139.872C134.879 140.125 134.346 140.596 134.009 141.172C132.946 142.989 135.418 144.313 137.52 144.198C141.888 143.958 145.04 148.316 143.445 152.39L143.001 153.524C142.204 155.56 143.78 157.739 145.964 157.62L147.18 157.553C151.548 157.313 154.701 161.671 153.106 165.745C152.338 167.706 152.825 170.468 154.884 170.024C155.535 169.883 156.148 169.525 156.603 168.948L190.714 125.697Z" fill="white"/>
<path d="M187.325 121.013L186.297 118.19L186.297 118.19L187.325 121.013ZM190.714 125.697L188.354 123.836L188.354 123.836L190.714 125.697ZM135.572 139.872L136.6 142.696L136.6 142.696L135.572 139.872ZM143.445 152.39L140.647 151.294L140.647 151.294L143.445 152.39ZM143.001 153.524L145.799 154.619L143.001 153.524ZM145.964 157.62L146.129 160.62L146.129 160.62L145.964 157.62ZM147.18 157.553L147.016 154.552L147.016 154.552L147.18 157.553ZM156.603 168.948L154.244 167.087L156.603 168.948ZM153.106 165.745L150.308 164.649L150.308 164.649L153.106 165.745ZM154.884 170.024L155.518 172.961L154.884 170.024ZM137.52 144.198L137.684 147.198L137.684 147.198L137.52 144.198ZM188.354 123.836C188.377 123.828 188.391 123.825 188.395 123.824C188.4 123.823 188.399 123.824 188.392 123.824C188.386 123.824 188.378 123.824 188.368 123.822C188.359 123.821 188.35 123.818 188.343 123.816C188.329 123.811 188.326 123.807 188.33 123.811C188.332 123.812 188.336 123.815 188.34 123.82C188.345 123.825 188.35 123.83 188.354 123.836C188.359 123.843 188.363 123.849 188.366 123.855C188.369 123.86 188.37 123.865 188.371 123.867C188.373 123.873 188.37 123.868 188.37 123.853C188.37 123.846 188.371 123.837 188.372 123.828C188.374 123.818 188.376 123.81 188.378 123.804C188.38 123.798 188.381 123.797 188.379 123.801C188.376 123.805 188.369 123.817 188.354 123.836L193.073 127.558C196.822 122.805 191.985 116.117 186.297 118.19L188.354 123.836ZM136.6 142.696L188.354 123.836L186.297 118.19L134.543 137.049L136.6 142.696ZM136.603 142.69C136.603 142.689 136.602 142.692 136.597 142.695C136.595 142.697 136.593 142.698 136.593 142.699C136.592 142.699 136.594 142.698 136.6 142.696L134.543 137.049C133.166 137.55 132.092 138.498 131.416 139.654L136.603 142.69ZM146.243 153.485C148.635 147.375 143.907 140.838 137.355 141.198L137.684 147.198C139.868 147.079 141.444 149.258 140.647 151.294L146.243 153.485ZM145.799 154.619L146.243 153.485L140.647 151.294L140.203 152.428L145.799 154.619ZM145.799 154.619L145.799 154.619L140.203 152.428C138.608 156.502 141.761 160.86 146.129 160.62L145.799 154.619ZM147.016 154.552L145.799 154.619L146.129 160.62L147.345 160.553L147.016 154.552ZM155.904 166.84C158.296 160.73 153.568 154.193 147.016 154.552L147.345 160.553C149.529 160.433 151.105 162.613 150.308 164.649L155.904 166.84ZM154.244 167.087C154.24 167.092 154.238 167.094 154.238 167.093C154.239 167.093 154.24 167.091 154.243 167.09C154.248 167.087 154.251 167.086 154.25 167.086L155.518 172.961C156.824 172.679 158.058 171.956 158.963 170.809L154.244 167.087ZM188.354 123.836L154.244 167.087L158.963 170.809L193.073 127.558L188.354 123.836ZM150.308 164.649C149.713 166.167 149.546 168.066 150.074 169.707C150.347 170.553 150.884 171.562 151.902 172.277C153 173.048 154.296 173.225 155.518 172.961L154.25 167.086C154.32 167.071 154.483 167.049 154.707 167.089C154.937 167.129 155.163 167.223 155.357 167.36C155.544 167.491 155.658 167.63 155.72 167.724C155.751 167.77 155.77 167.807 155.781 167.83C155.786 167.842 155.79 167.851 155.792 167.857C155.794 167.863 155.795 167.866 155.796 167.866C155.796 167.866 155.795 167.864 155.793 167.859C155.792 167.854 155.79 167.846 155.788 167.836C155.784 167.816 155.779 167.788 155.775 167.752C155.767 167.679 155.764 167.585 155.77 167.475C155.783 167.246 155.834 167.019 155.904 166.84L150.308 164.649ZM131.416 139.654C130.784 140.733 130.549 142.02 130.939 143.303C131.301 144.493 132.092 145.317 132.81 145.84C134.204 146.853 136.058 147.288 137.684 147.198L137.355 141.198C137.163 141.208 136.931 141.185 136.71 141.126C136.603 141.098 136.515 141.065 136.448 141.034C136.415 141.019 136.389 141.006 136.371 140.996C136.363 140.991 136.356 140.987 136.351 140.984C136.347 140.981 136.345 140.979 136.345 140.979C136.345 140.979 136.348 140.981 136.352 140.985C136.357 140.989 136.365 140.996 136.374 141.004C136.393 141.022 136.422 141.051 136.456 141.095C136.525 141.182 136.622 141.334 136.688 141.552C136.757 141.779 136.776 142.023 136.743 142.255C136.711 142.48 136.639 142.627 136.603 142.69L131.416 139.654Z" fill="black" mask="url(#path-2-outside-1_4011_68920)"/>
<mask id="path-4-inside-2_4011_68920" fill="white">
<path fill-rule="evenodd" clip-rule="evenodd" d="M203.29 115.434C204.636 113.838 202.948 111.505 201.011 112.283L197.05 113.876L197.049 113.874L176.941 121.608L186.9 135.376L200.54 118.7L200.538 118.697L203.29 115.434Z"/>
</mask>
<path fill-rule="evenodd" clip-rule="evenodd" d="M203.29 115.434C204.636 113.838 202.948 111.505 201.011 112.283L197.05 113.876L197.049 113.874L176.941 121.608L186.9 135.376L200.54 118.7L200.538 118.697L203.29 115.434Z" fill="white"/>
<path d="M201.011 112.283L199.893 109.5L201.011 112.283ZM203.29 115.434L205.584 117.367L205.584 117.367L203.29 115.434ZM197.05 113.876L194.619 115.634L195.994 117.534L198.169 116.659L197.05 113.876ZM197.049 113.874L199.48 112.116L198.127 110.246L195.972 111.074L197.049 113.874ZM176.941 121.608L175.864 118.808L172.226 120.208L174.51 123.367L176.941 121.608ZM186.9 135.376L184.47 137.135L186.754 140.294L189.223 137.276L186.9 135.376ZM200.54 118.7L202.862 120.599L204.323 118.812L202.97 116.941L200.54 118.7ZM200.538 118.697L198.245 116.763L196.733 118.556L198.107 120.456L200.538 118.697ZM202.13 115.067C201.961 115.135 201.703 115.16 201.44 115.074C201.206 114.997 201.048 114.86 200.951 114.726C200.854 114.593 200.774 114.399 200.774 114.153C200.775 113.876 200.879 113.639 200.997 113.5L205.584 117.367C208.945 113.382 204.73 107.555 199.893 109.5L202.13 115.067ZM198.169 116.659L202.13 115.067L199.893 109.5L195.931 111.092L198.169 116.659ZM199.481 112.117L199.48 112.116L194.619 115.633L194.619 115.634L199.481 112.117ZM195.972 111.074L175.864 118.808L178.018 124.409L198.126 116.674L195.972 111.074ZM174.51 123.367L184.47 137.135L189.331 133.618L179.372 119.85L174.51 123.367ZM189.223 137.276L202.862 120.599L198.217 116.8L184.578 133.477L189.223 137.276ZM202.97 116.941L202.969 116.939L198.107 120.456L198.109 120.458L202.97 116.941ZM200.997 113.5L198.245 116.763L202.831 120.631L205.584 117.367L200.997 113.5Z" fill="black" mask="url(#path-4-inside-2_4011_68920)"/>
<path d="M228.071 265.216C231.886 270.873 230.415 278.6 224.465 281.938C204.383 293.202 181.929 299.727 158.826 300.938C131.6 302.365 104.499 296.357 80.427 283.557C56.3549 270.758 36.2191 251.65 22.1772 228.281C8.13536 204.912 0.716734 178.163 0.716309 150.899C0.715883 123.636 8.13367 96.8864 22.1748 73.5168C36.2159 50.1473 56.3512 31.0387 80.4229 18.2387C104.495 5.43865 131.596 -0.570369 158.822 0.855538C181.925 2.06552 204.379 8.59044 224.461 19.8537C230.411 23.1913 231.883 30.9186 228.068 36.5752C224.252 42.2318 216.598 43.665 210.594 40.4241C194.273 31.6141 176.153 26.5051 157.529 25.5297C134.781 24.3382 112.136 29.3591 92.0232 40.0542C71.91 50.7492 55.086 66.7155 43.3539 86.2419C31.6218 105.768 25.4239 128.119 25.4242 150.899C25.4246 173.679 31.6232 196.029 43.3559 215.555C55.0886 235.081 71.9132 251.047 92.0266 261.742C112.14 272.436 134.784 277.456 157.533 276.264C176.157 275.288 194.276 270.178 210.598 261.368C216.602 258.127 224.256 259.56 228.071 265.216Z" fill="white"/>
</svg>
