<svg width="24" height="24" viewBox="0 0 24 24" fill="none" xmlns="http://www.w3.org/2000/svg">
<g id="edit/cross-outline">
<path id="Vector" fill-rule="evenodd" clip-rule="evenodd" d="M18.7346 6.54541C18.8187 6.46145 18.8854 6.36176 18.9309 6.25202C18.9765 6.14228 18.9999 6.02465 19 5.90584C19.0001 5.78703 18.9767 5.66937 18.9313 5.55957C18.8859 5.44978 18.8194 5.35 18.7354 5.26594C18.6514 5.18187 18.5518 5.11517 18.442 5.06964C18.3323 5.0241 18.2146 5.00063 18.0958 5.00056C17.977 5.00048 17.8594 5.02381 17.7496 5.06921C17.6398 5.11461 17.54 5.18119 17.4559 5.26515L11.9999 10.7212L6.54541 5.26515C6.37564 5.09538 6.14538 5 5.90528 5C5.66519 5 5.43492 5.09538 5.26515 5.26515C5.09538 5.43492 5 5.66519 5 5.90528C5 6.14538 5.09538 6.37564 5.26515 6.54541L10.7212 11.9999L5.26515 17.4544C5.18109 17.5384 5.1144 17.6382 5.06891 17.7481C5.02342 17.8579 5 17.9756 5 18.0945C5 18.2134 5.02342 18.3311 5.06891 18.4409C5.1144 18.5508 5.18109 18.6506 5.26515 18.7346C5.43492 18.9044 5.66519 18.9998 5.90528 18.9998C6.02416 18.9998 6.14188 18.9764 6.25172 18.9309C6.36155 18.8854 6.46135 18.8187 6.54541 18.7346L11.9999 13.2786L17.4559 18.7346C17.6257 18.9042 17.8559 18.9994 18.0958 18.9992C18.3358 18.9991 18.5658 18.9036 18.7354 18.7338C18.905 18.5641 19.0001 18.3339 19 18.0939C18.9999 17.854 18.9044 17.6239 18.7346 17.4544L13.2786 11.9999L18.7346 6.54541Z" fill="#2A333C"/>
</g>
</svg>
