<svg width="24" height="24" viewBox="0 0 24 24" fill="none" xmlns="http://www.w3.org/2000/svg">
<g id="notify/error.filled">
<path id="Vector" d="M12 2C17.523 2 22 6.478 22 12C22 17.522 17.523 22 12 22C6.477 22 2 17.522 2 12C2 6.478 6.477 2 12 2ZM12.002 15.004C11.8682 14.9998 11.7349 15.0225 11.6101 15.0707C11.4853 15.119 11.3714 15.1919 11.2753 15.285C11.1791 15.3782 11.1027 15.4897 11.0505 15.6129C10.9983 15.7362 10.9714 15.8686 10.9714 16.0025C10.9714 16.1364 10.9983 16.2688 11.0505 16.3921C11.1027 16.5153 11.1791 16.6268 11.2753 16.72C11.3714 16.8131 11.4853 16.886 11.6101 16.9343C11.7349 16.9825 11.8682 17.0052 12.002 17.001C12.2613 16.9928 12.5073 16.884 12.6879 16.6976C12.8684 16.5113 12.9694 16.262 12.9694 16.0025C12.9694 15.743 12.8684 15.4937 12.6879 15.3074C12.5073 15.121 12.2613 15.0122 12.002 15.004ZM12 7C11.7549 7.00006 11.5184 7.09013 11.3353 7.25309C11.1523 7.41605 11.0354 7.64057 11.007 7.884L11 8L11.002 13.001L11.009 13.118C11.0379 13.361 11.155 13.5851 11.338 13.7476C11.521 13.9101 11.7572 13.9999 12.002 13.9999C12.2468 13.9999 12.483 13.9101 12.666 13.7476C12.849 13.5851 12.9661 13.361 12.995 13.118L13.002 13.001L13 8L12.993 7.883C12.9643 7.63975 12.8474 7.41547 12.6644 7.25272C12.4813 7.08996 12.2449 7.00003 12 7Z" fill="#B3261E"/>
</g>
</svg>
